<svg viewBox="0 0 96 96" xmlns="http://www.w3.org/2000/svg" fill="none">
  <rect width="96" height="96" rx="20" fill="#ffffff"/>
  <g transform="translate(8,8)">
    <path
      d="M39.9 39.9c-14.3 0-26-11.6-26-26 0-2.1 1.7-3.9 3.9-3.9H35m22.5 5.3L45.4 3.1c-1.5-1.5-4-1.5-5.5 0-10.1 10.1-10.1 26.6 0 36.7m29.8-4.9V17.8c0-2.1-1.7-3.9-3.9-3.9-14.3 0-26 11.6-26 26m24.7 17.6l12.1-12.1c1.5-1.5 1.5-4 0-5.5-10.1-10.1-26.6-10.1-36.7 0m4.9 29.8H62c2.1 0 3.9-1.7 3.9-3.9 0-14.3-11.6-26-26-26M22.2 64.5l12.1 12.1c1.5 1.5 4 1.5 5.5 0C50 66.5 50 50 39.9 39.9M10 44.8V62c0 2.1 1.7 3.9 3.9 3.9 14.3 0 26-11.6 26-26M15.3 22.2L3.1 34.4c-1.5 1.5-1.5 4 0 5.5C13.3 50 29.7 50 39.9 39.9"
      stroke="#ff0844"
      stroke-width="4"
      stroke-linecap="round"
      stroke-linejoin="round"
    />
  </g>
</svg>
