<svg viewBox="62.3 88.9 215.5 85.9" fill="none" xmlns="http://www.w3.org/2000/svg">
  <!-- AIDA Logistics lockup — vector reconstruction from LogoAI brand assets (logo id 3143957) -->
  <g transform="translate(65.385,92)">
    <path d="M39.9 39.9c-14.3 0-26-11.6-26-26 0-2.1 1.7-3.9 3.9-3.9H35m22.5 5.3L45.4 3.1c-1.5-1.5-4-1.5-5.5 0-10.1 10.1-10.1 26.6 0 36.7m29.8-4.9V17.8c0-2.1-1.7-3.9-3.9-3.9-14.3 0-26 11.6-26 26m24.7 17.6l12.1-12.1c1.5-1.5 1.5-4 0-5.5-10.1-10.1-26.6-10.1-36.7 0m4.9 29.8H62c2.1 0 3.9-1.7 3.9-3.9 0-14.3-11.6-26-26-26M22.2 64.5l12.1 12.1c1.5 1.5 4 1.5 5.5 0C50 66.5 50 50 39.9 39.9M10 44.8V62c0 2.1 1.7 3.9 3.9 3.9 14.3 0 26-11.6 26-26M15.3 22.2L3.1 34.4c-1.5 1.5-1.5 4 0 5.5C13.3 50 29.7 50 39.9 39.9" stroke="#ff0844" stroke-width="4" stroke-linecap="round" stroke-linejoin="round"/>
    <g transform="translate(71,5.552)">
      <path fill="#ff0844" transform="translate(-0.58,40.74)" d="M26.66-40.74L26.66-40.74 45.05 0 37.36 0 34.22-6.98 34.22-6.98 31.08-13.97 31.08-13.97 22.81-32.24 14.55-13.97 25.14-13.97 28.28-6.98 11.41-6.98 8.26 0 0.58 0 18.97-40.74 26.66-40.74ZM54.94-40.68L54.94-40.68 54.94 0 47.96 0 47.96-40.68 54.94-40.68ZM76.18-40.74L76.18-40.74Q80.37-40.74 84.1-39.14 87.82-37.54 90.59-34.77 93.35-32.01 94.95-28.28 96.55-24.56 96.55-20.37L96.55-20.37Q96.55-16.18 94.95-12.45 93.35-8.73 90.59-5.97 87.82-3.2 84.1-1.6 80.37 0 76.18 0L76.18 0 68.97 0 71.82-6.98 76.18-6.98Q78.86-6.98 81.3-8 83.75-9.02 85.67-10.88L85.67-10.88Q87.53-12.8 88.55-15.22 89.57-17.63 89.57-20.37L89.57-20.37Q89.57-23.05 88.55-25.49 87.53-27.94 85.67-29.86L85.67-29.86Q83.75-31.72 81.3-32.74 78.86-33.76 76.18-33.76L76.18-33.76 66.29-33.76 66.29-16.88 66.29-6.98 66.29 0 59.31 0 59.31-40.74 76.18-40.74ZM120.41-40.74L120.41-40.74 138.81 0 131.12 0 127.98-6.98 127.98-6.98 124.84-13.97 124.84-13.97 116.57-32.24 108.31-13.97 118.9-13.97 122.04-6.98 105.17-6.98 102.02 0 94.34 0 112.73-40.74 120.41-40.74Z"/>
      <g transform="translate(5,46.74)">
        <rect x="0" y="3.58" width="35.5" height="1" fill="#0a0619"/>
        <rect x="92.73" y="3.58" width="35.5" height="1" fill="#0a0619"/>
        <path fill="#0a0619" transform="translate(38.5,0) translate(-1.08,8.016)" d="M1.08 0L1.08-7.87L2.08-7.87L2.08-0.85L5.52-0.85L5.52 0L1.08 0ZM9.50 0.14L9.50 0.14Q8.76 0.14 8.14-0.14Q7.52-0.43 7.08-0.97Q6.64-1.50 6.39-2.26Q6.14-3.02 6.14-3.97L6.14-3.97Q6.14-4.92 6.39-5.67Q6.64-6.42 7.08-6.94Q7.52-7.46 8.14-7.74Q8.76-8.02 9.50-8.02L9.50-8.02Q10.25-8.02 10.87-7.73Q11.48-7.45 11.93-6.93Q12.38-6.41 12.63-5.66Q12.88-4.91 12.88-3.97L12.88-3.97Q12.88-3.02 12.63-2.26Q12.38-1.50 11.93-0.97Q11.48-0.43 10.87-0.14Q10.25 0.14 9.50 0.14ZM9.50-0.73L9.50-0.73Q10.03-0.73 10.46-0.96Q10.88-1.19 11.19-1.61Q11.50-2.04 11.66-2.63Q11.83-3.23 11.83-3.97L11.83-3.97Q11.83-4.70 11.66-5.29Q11.50-5.88 11.19-6.29Q10.88-6.70 10.46-6.92Q10.03-7.14 9.50-7.14L9.50-7.14Q8.98-7.14 8.55-6.92Q8.12-6.70 7.82-6.29Q7.51-5.88 7.34-5.29Q7.18-4.70 7.18-3.97L7.18-3.97Q7.18-3.23 7.34-2.63Q7.51-2.04 7.82-1.61Q8.12-1.19 8.55-0.96Q8.98-0.73 9.50-0.73ZM14.11-3.94L14.11-3.94Q14.11-4.88 14.38-5.64Q14.65-6.40 15.14-6.92Q15.62-7.45 16.28-7.73Q16.94-8.02 17.74-8.02L17.74-8.02Q18.55-8.02 19.10-7.71Q19.64-7.40 19.99-7.04L19.99-7.04L19.43-6.41Q19.13-6.72 18.74-6.93Q18.35-7.14 17.75-7.14L17.75-7.14Q17.15-7.14 16.67-6.92Q16.19-6.70 15.85-6.28Q15.52-5.87 15.33-5.28Q15.14-4.69 15.14-3.96L15.14-3.96Q15.14-3.22 15.32-2.62Q15.49-2.03 15.82-1.61Q16.15-1.19 16.64-0.96Q17.12-0.73 17.76-0.73L17.76-0.73Q18.18-0.73 18.56-0.86Q18.94-0.98 19.18-1.20L19.18-1.20L19.18-3.25L17.51-3.25L17.51-4.08L20.09-4.08L20.09-0.77Q19.70-0.37 19.07-0.11Q18.44 0.14 17.65 0.14L17.65 0.14Q16.87 0.14 16.22-0.13Q15.58-0.41 15.11-0.93Q14.64-1.45 14.38-2.21Q14.11-2.98 14.11-3.94ZM21.97 0L21.97-7.87L22.97-7.87L22.97 0L21.97 0ZM24.55-1.02L25.15-1.72Q25.57-1.27 26.14-1.00Q26.71-0.73 27.32-0.73L27.32-0.73Q28.10-0.73 28.54-1.09Q28.97-1.44 28.97-2.02L28.97-2.02Q28.97-2.32 28.87-2.53Q28.76-2.74 28.59-2.89Q28.42-3.04 28.18-3.16Q27.94-3.28 27.66-3.41L27.66-3.41L26.53-3.90Q26.26-4.02 25.97-4.19Q25.68-4.36 25.45-4.60Q25.22-4.84 25.08-5.17Q24.94-5.50 24.94-5.93L24.94-5.93Q24.94-6.37 25.12-6.76Q25.31-7.14 25.64-7.42Q25.97-7.70 26.42-7.86Q26.87-8.02 27.41-8.02L27.41-8.02Q28.12-8.02 28.72-7.75Q29.32-7.48 29.74-7.04L29.74-7.04L29.20-6.40Q28.84-6.74 28.40-6.94Q27.96-7.14 27.41-7.14L27.41-7.14Q26.75-7.14 26.35-6.83Q25.94-6.53 25.94-5.99L25.94-5.99Q25.94-5.70 26.06-5.50Q26.17-5.30 26.36-5.15Q26.56-5.00 26.78-4.89Q27.01-4.78 27.25-4.68L27.25-4.68L28.37-4.20Q28.70-4.06 29.00-3.87Q29.30-3.68 29.52-3.44Q29.74-3.19 29.86-2.86Q29.99-2.53 29.99-2.10L29.99-2.10Q29.99-1.63 29.80-1.22Q29.62-0.82 29.27-0.51Q28.92-0.20 28.43-0.03Q27.94 0.14 27.31 0.14L27.31 0.14Q26.48 0.14 25.78-0.17Q25.07-0.48 24.55-1.02L24.55-1.02ZM32.93 0L32.93-7.03L30.55-7.03L30.55-7.87L36.31-7.87L36.31-7.03L33.94-7.03L33.94 0L32.93 0ZM37.73 0L37.73-7.87L38.72-7.87L38.72 0L37.73 0ZM40.43-3.94L40.43-3.94Q40.43-4.88 40.69-5.64Q40.96-6.40 41.42-6.92Q41.89-7.45 42.53-7.73Q43.18-8.02 43.93-8.02L43.93-8.02Q44.65-8.02 45.19-7.72Q45.73-7.43 46.08-7.04L46.08-7.04L45.52-6.41Q45.20-6.74 44.83-6.94Q44.45-7.14 43.94-7.14L43.94-7.14Q43.38-7.14 42.92-6.92Q42.47-6.70 42.14-6.28Q41.82-5.87 41.64-5.28Q41.46-4.69 41.46-3.96L41.46-3.96Q41.46-3.22 41.63-2.62Q41.81-2.03 42.12-1.61Q42.43-1.19 42.88-0.96Q43.33-0.73 43.90-0.73L43.90-0.73Q44.47-0.73 44.90-0.96Q45.32-1.19 45.71-1.61L45.71-1.61L46.27-1.00Q45.80-0.46 45.22-0.16Q44.63 0.14 43.87 0.14L43.87 0.14Q43.13 0.14 42.50-0.13Q41.87-0.41 41.41-0.93Q40.94-1.45 40.69-2.21Q40.43-2.98 40.43-3.94ZM46.87-1.02L47.47-1.72Q47.89-1.27 48.46-1.00Q49.03-0.73 49.64-0.73L49.64-0.73Q50.42-0.73 50.86-1.09Q51.29-1.44 51.29-2.02L51.29-2.02Q51.29-2.32 51.19-2.53Q51.08-2.74 50.91-2.89Q50.74-3.04 50.50-3.16Q50.26-3.28 49.98-3.41L49.98-3.41L48.85-3.90Q48.58-4.02 48.29-4.19Q48.00-4.36 47.77-4.60Q47.54-4.84 47.40-5.17Q47.26-5.50 47.26-5.93L47.26-5.93Q47.26-6.37 47.44-6.76Q47.63-7.14 47.96-7.42Q48.29-7.70 48.74-7.86Q49.19-8.02 49.73-8.02L49.73-8.02Q50.44-8.02 51.04-7.75Q51.64-7.48 52.06-7.04L52.06-7.04L51.52-6.40Q51.16-6.74 50.72-6.94Q50.28-7.14 49.73-7.14L49.73-7.14Q49.07-7.14 48.67-6.83Q48.26-6.53 48.26-5.99L48.26-5.99Q48.26-5.70 48.38-5.50Q48.49-5.30 48.68-5.15Q48.88-5.00 49.10-4.89Q49.33-4.78 49.57-4.68L49.57-4.68L50.69-4.20Q51.02-4.06 51.32-3.87Q51.62-3.68 51.84-3.44Q52.06-3.19 52.18-2.86Q52.31-2.53 52.31-2.10L52.31-2.10Q52.31-1.63 52.12-1.22Q51.94-0.82 51.59-0.51Q51.24-0.20 50.75-0.03Q50.26 0.14 49.63 0.14L49.63 0.14Q48.80 0.14 48.10-0.17Q47.39-0.48 46.87-1.02L46.87-1.02Z"/>
      </g>
    </g>
  </g>
</svg>
